HIERARCHY
ROOT SpineBase
{
  OFFSET 0.000000 0.000000 0.000000
  CHANNELS 6 Xposition Yposition Zposition Zrotation Xrotation Yrotation
  JOINT SpineMid
  {
    OFFSET -0.000000 30.211226 0.000000
    CHANNELS 3 Zrotation Xrotation Yrotation
    JOINT SpineShoulder
    {
      OFFSET -0.227024 22.416107 -0.681441
      CHANNELS 3 Zrotation Xrotation Yrotation
      JOINT Neck
      {
        OFFSET -0.166938 7.406288 -0.526058
        CHANNELS 3 Zrotation Xrotation Yrotation
        JOINT Head
        {
          OFFSET -6.243340 13.265619 2.277082
          CHANNELS 3 Zrotation Xrotation Yrotation
          End Site
          {
            OFFSET 0 0 0
          }
        }
      }
      JOINT ShoulderLeft
      {
        OFFSET -9.920473 -6.988312 16.595816
        CHANNELS 3 Zrotation Xrotation Yrotation
        JOINT ElbowLeft
        {
          OFFSET -0.978810 -27.930030 -1.838733
          CHANNELS 3 Zrotation Xrotation Yrotation
          JOINT WristLeft
          {
            OFFSET -2.022753 -19.758998 -6.343117
            CHANNELS 3 Zrotation Xrotation Yrotation
            JOINT HandLeft
            {
              OFFSET -0.388055 -4.470320 -2.769053
              CHANNELS 3 Zrotation Xrotation Yrotation
              JOINT HandTipLeft
              {
                OFFSET 0.047971 -8.621372 -4.094238
                CHANNELS 3 Zrotation Xrotation Yrotation
                End Site
                {
                  OFFSET 0 0 0
                }
              }
              JOINT ThumbLeft
              {
                OFFSET -2.010869 -1.565319 -0.204091
                CHANNELS 3 Zrotation Xrotation Yrotation
                End Site
                {
                  OFFSET 0 0 0
                }
              }
            }
          }
        }
      }
      JOINT ShoulderRight
      {
        OFFSET 8.199543 -2.859028 -12.404906
        CHANNELS 3 Zrotation Xrotation Yrotation
        JOINT ElbowRight
        {
          OFFSET 6.162225 -18.436863 -8.140938
          CHANNELS 3 Zrotation Xrotation Yrotation
          JOINT WristRight
          {
            OFFSET -3.420350 -24.736287 -3.720408
            CHANNELS 3 Zrotation Xrotation Yrotation
            JOINT HandRight
            {
              OFFSET -2.383800 -7.293339 0.647923
              CHANNELS 3 Zrotation Xrotation Yrotation
              JOINT HandTipRight
              {
                OFFSET -1.078306 -7.929724 0.276415
                CHANNELS 3 Zrotation Xrotation Yrotation
                End Site
                {
                  OFFSET 0 0 0
                }
              }
              JOINT ThumbRight
              {
                OFFSET -2.558762 1.343433 1.417384
                CHANNELS 3 Zrotation Xrotation Yrotation
                End Site
                {
                  OFFSET 0 0 0
                }
              }
            }
          }
        }
      }
    }
  }
  JOINT HipLeft
  {
    OFFSET -5.102095 -0.349958 2.511704
    CHANNELS 3 Zrotation Xrotation Yrotation
    JOINT KneeLeft
    {
      OFFSET 0.961749 -31.214273 -2.525218
      CHANNELS 3 Zrotation Xrotation Yrotation
      JOINT AnkleLeft
      {
        OFFSET 5.754035 -35.229211 3.774033
        CHANNELS 3 Zrotation Xrotation Yrotation
        JOINT FootLeft
        {
          OFFSET -1.928483 -6.398325 -5.545514
          CHANNELS 3 Zrotation Xrotation Yrotation
          End Site
          {
            OFFSET 0 0 0
          }
        }
      }
    }
  }
  JOINT HipRight
  {
    OFFSET 3.106313 1.661741 -9.342032
    CHANNELS 3 Zrotation Xrotation Yrotation
    JOINT KneeRight
    {
      OFFSET 8.648523 -27.376974 -7.333932
      CHANNELS 3 Zrotation Xrotation Yrotation
      JOINT AnkleRight
      {
        OFFSET 12.024292 -37.819126 8.522859
        CHANNELS 3 Zrotation Xrotation Yrotation
        JOINT FootRight
        {
          OFFSET -1.279891 -6.733737 -3.711564
          CHANNELS 3 Zrotation Xrotation Yrotation
          End Site
          {
            OFFSET 0 0 0
          }
        }
      }
    }
  }
}
MOTION
Frames: 16
Frame Time: 0.033333
100.331006 73.410571 346.840708 0.000000 0.000000 55.298391 -0.000000 0.000000 -55.298391 -0.000000 0.000000 0.000000 -0.000000 0.000000 0.000000 0.000000 0.000000 0.000000 -0.000000 0.000000 0.000000 -0.000000 0.000000 0.000000 -0.000000 0.000000 0.000000 -0.000000 0.000000 0.000000 0.000000 0.000000 0.000000 0.000000 0.000000 0.000000 -0.000000 0.000000 0.000000 -0.000000 0.000000 0.000000 -0.000000 0.000000 0.000000 -0.000000 0.000000 0.000000 0.000000 0.000000 0.000000 0.000000 0.000000 0.000000 -0.000000 0.000000 -55.298391 -0.000000 0.000000 0.000000 -0.000000 0.000000 0.000000 0.000000 0.000000 0.000000 -0.000000 0.000000 -55.298391 -0.000000 0.000000 0.000000 -0.000000 0.000000 0.000000 0.000000 0.000000 0.000000
100.323696 73.411280 346.836126 0.012036 0.019591 55.235784 -0.022957 -0.001283 -55.235786 -0.000000 0.000000 0.000000 -0.000000 0.000000 0.000000 0.000000 0.000000 0.000000 -0.000000 0.000000 0.000000 -0.000000 0.000000 0.000000 -0.000000 0.000000 0.000000 0.258423 1.968618 -0.115267 0.000000 0.000000 0.000000 0.000000 0.000000 0.000000 -0.000000 0.000000 0.000000 -0.088337 0.861807 -0.105086 -0.029367 -4.209866 1.181386 1.100309 7.401057 -1.697576 0.000000 0.000000 0.000000 0.000000 0.000000 0.000000 -0.022957 -0.001283 -55.235786 -0.000000 0.000000 0.000000 -0.000000 0.000000 0.000000 0.000000 0.000000 0.000000 -0.022957 -0.001283 -55.235786 -0.000000 0.000000 0.000000 -0.000000 0.000000 0.000000 0.000000 0.000000 0.000000
100.316475 73.412394 346.833880 0.024954 0.038998 55.181263 -0.046264 -0.001781 -55.181272 -0.000000 0.000000 0.000000 -0.000000 0.000000 0.000000 0.000000 0.000000 0.000000 -0.000000 0.000000 0.000000 -0.000000 0.000000 0.000000 -0.393834 1.106762 0.150733 0.904657 2.480898 -0.365786 0.000000 0.000000 0.000000 0.000000 0.000000 0.000000 -0.000000 0.000000 0.000000 -0.160642 1.557213 -0.188567 0.021829 -6.880560 1.901241 1.876381 12.306055 -2.887970 0.000000 0.000000 0.000000 0.000000 0.000000 0.000000 -0.046264 -0.001781 -55.181272 -0.000000 0.000000 0.000000 -0.577491 -0.697849 0.710004 0.000000 0.000000 0.000000 -0.046264 -0.001781 -55.181272 -0.000000 0.000000 0.000000 0.780289 -1.125287 -0.209947 0.000000 0.000000 0.000000
100.309344 73.413914 346.833970 0.038755 0.058223 55.134850 -0.069926 -0.001484 -55.134871 -0.000000 0.000000 0.000000 -0.000000 0.000000 0.000000 0.000000 0.000000 0.000000 -0.000000 0.000000 0.000000 -0.000000 0.000000 0.000000 -0.484646 1.495354 0.175235 1.230521 3.347570 -0.491215 0.000000 0.000000 0.000000 0.000000 0.000000 0.000000 -0.000000 0.000000 0.000000 -0.212876 2.036227 -0.245065 0.088927 -8.400457 2.297537 2.242639 15.343383 -3.616051 0.000000 0.000000 0.000000 0.000000 0.000000 0.000000 -0.069926 -0.001484 -55.134871 -0.000000 0.000000 0.000000 -0.798986 -0.935207 0.972677 0.000000 0.000000 0.000000 -0.069926 -0.001484 -55.134871 -0.000000 0.000000 0.000000 0.966084 -1.487279 -0.239359 0.000000 0.000000 0.000000
100.302302 73.415840 346.836395 0.053441 0.077266 55.096562 -0.093946 -0.000383 -55.096599 -0.000000 0.000000 0.000000 -0.000000 0.000000 0.000000 0.000000 0.000000 0.000000 -0.000000 0.000000 0.000000 -0.000000 0.000000 0.000000 -0.467670 1.695016 0.148050 1.428606 4.025472 -0.564247 0.000000 0.000000 0.000000 0.000000 0.000000 0.000000 -0.000000 0.000000 0.000000 -0.241987 2.261554 -0.270696 0.145335 -8.930485 2.427679 2.151091 16.831014 -3.896047 0.000000 0.000000 0.000000 0.000000 0.000000 0.000000 -0.093946 -0.000383 -55.096599 -0.000000 0.000000 0.000000 -0.981288 -1.103509 1.180444 0.000000 0.000000 0.000000 -0.093946 -0.000383 -55.096599 -0.000000 0.000000 0.000000 1.036957 -1.739611 -0.227450 0.000000 0.000000 0.000000
100.295350 73.418171 346.841156 0.069014 0.096131 55.066413 -0.118329 0.001532 -55.066469 -0.000000 0.000000 0.000000 -0.000000 0.000000 0.000000 0.000000 0.000000 0.000000 -0.000000 0.000000 0.000000 -0.000000 0.000000 0.000000 -0.323184 1.654447 0.060672 1.475495 4.553927 -0.578397 0.000000 0.000000 0.000000 0.000000 0.000000 0.000000 -0.000000 0.000000 0.000000 -0.246336 2.215367 -0.263704 0.184103 -8.505488 2.305026 1.568507 16.873763 -3.733596 0.000000 0.000000 0.000000 0.000000 0.000000 0.000000 -0.118329 0.001532 -55.066469 -0.000000 0.000000 0.000000 -1.127389 -1.205391 1.336782 0.000000 0.000000 0.000000 -0.118329 0.001532 -55.066469 -0.000000 0.000000 0.000000 1.001317 -1.893423 -0.177374 0.000000 0.000000 0.000000
100.289701 73.419872 346.847062 0.094555 0.122522 55.031539 -0.154595 0.007264 -55.031630 -0.000000 0.000000 0.000000 -0.000000 0.000000 0.000000 0.000000 0.000000 0.000000 -0.000000 0.000000 0.000000 -0.000000 0.000000 0.000000 -0.000000 0.000000 0.000000 1.349528 5.133454 -0.658755 0.000000 0.000000 0.000000 0.000000 0.000000 0.000000 -0.000000 0.000000 0.000000 -0.218766 1.626967 -0.188518 0.512036 -4.978286 1.330058 -1.929113 14.380996 -2.413343 0.000000 0.000000 0.000000 0.000000 0.000000 0.000000 -0.154595 0.007264 -55.031630 -0.000000 0.000000 0.000000 -1.983649 -1.464310 2.147780 0.000000 0.000000 0.000000 -0.154595 0.007264 -55.031630 -0.000000 0.000000 0.000000 0.886254 -2.038936 -0.086119 0.000000 0.000000 0.000000
100.280945 73.422572 346.856959 0.113771 0.145526 55.007934 -0.184463 0.009752 -55.008063 -0.000000 0.000000 0.000000 -0.601492 -0.704361 -0.232774 0.000000 0.000000 0.000000 -0.000000 0.000000 0.000000 -0.000000 0.000000 0.000000 0.330430 0.799128 -0.275234 1.067065 4.561645 -0.404549 0.000000 0.000000 0.000000 0.000000 0.000000 0.000000 -0.000000 0.000000 0.000000 -0.154854 0.920900 -0.102660 0.156524 -0.920618 0.105162 -3.271697 8.897222 -1.070492 0.000000 0.000000 0.000000 0.000000 0.000000 0.000000 -0.184463 0.009752 -55.008063 -0.000000 0.000000 0.000000 1.407980 -3.147623 -0.239329 0.000000 0.000000 0.000000 -0.184463 0.009752 -55.008063 -0.000000 0.000000 0.000000 0.910842 -2.281578 -0.050834 0.000000 0.000000 0.000000
100.273241 73.426514 346.872873 0.125716 0.158475 55.005888 -0.201922 0.012104 -55.006041 -0.000000 0.000000 0.000000 -0.695962 -0.827698 -0.276249 0.000000 0.000000 0.000000 -0.000000 0.000000 0.000000 -0.000000 0.000000 0.000000 1.158875 0.060538 -0.724124 0.639179 5.549403 -0.197754 0.000000 0.000000 0.000000 0.000000 0.000000 0.000000 -0.000000 0.000000 0.000000 -0.000000 0.000000 0.000000 0.577188 2.883579 -0.909449 -4.386495 1.508715 0.098501 0.000000 0.000000 0.000000 0.000000 0.000000 0.000000 -0.201922 0.012104 -55.006041 -0.000000 0.000000 0.000000 -0.967581 -0.186352 0.892198 0.000000 0.000000 0.000000 -0.201922 0.012104 -55.006041 -0.000000 0.000000 0.000000 0.515697 -2.041898 0.114310 0.000000 0.000000 0.000000
100.267195 73.432794 346.890608 0.134611 0.162443 55.041475 -0.210263 0.017246 -55.041634 -0.000000 0.000000 0.000000 -0.786332 -0.906470 -0.299245 0.000000 0.000000 0.000000 -0.000000 0.000000 0.000000 -0.000000 0.000000 0.000000 1.396513 0.653067 -0.927423 0.441800 4.004865 -0.001878 0.000000 0.000000 0.000000 0.000000 0.000000 0.000000 -0.000000 0.000000 0.000000 -0.000000 0.000000 0.000000 0.698454 6.180124 -2.011012 -4.537434 -4.632736 1.196933 0.000000 0.000000 0.000000 0.000000 0.000000 0.000000 -0.210263 0.017246 -55.041634 -0.000000 0.000000 0.000000 -2.816999 1.902431 1.874317 0.000000 0.000000 0.000000 -0.210263 0.017246 -55.041634 -0.000000 0.000000 0.000000 -0.182264 -1.233211 0.334791 0.000000 0.000000 0.000000
100.262472 73.438901 346.908622 0.145688 0.160969 55.099121 -0.215374 0.027386 -55.099275 -0.000000 0.000000 0.000000 -0.857116 -0.948184 -0.307747 0.000000 0.000000 0.000000 -0.000000 0.000000 0.000000 -0.000000 0.000000 0.000000 1.686642 2.925682 -1.322641 -0.060378 1.453092 0.509173 0.000000 0.000000 0.000000 0.000000 0.000000 0.000000 -0.073068 -0.846391 -0.252049 0.069352 0.846704 0.250997 0.732680 8.585360 -2.825439 -3.745871 -9.158425 2.152346 0.000000 0.000000 0.000000 0.000000 0.000000 0.000000 -0.215374 0.027386 -55.099275 -0.000000 0.000000 0.000000 -4.177610 3.143811 2.695051 0.000000 0.000000 0.000000 -0.215374 0.027386 -55.099275 -0.000000 0.000000 0.000000 -0.703465 -0.743052 0.525682 0.000000 0.000000 0.000000
100.258591 73.443642 346.928265 0.158057 0.161161 55.151846 -0.222574 0.037625 -55.151995 -0.000000 0.000000 0.000000 -0.874775 -0.989224 -0.324618 0.000000 0.000000 0.000000 -0.000000 0.000000 0.000000 0.128496 -1.050119 0.067639 1.934144 6.125196 -1.860999 -1.217375 0.663929 1.246474 0.000000 0.000000 0.000000 0.000000 0.000000 0.000000 -0.115600 -0.942572 -0.266009 0.111238 0.943097 0.264142 0.995734 8.916724 -2.937526 -4.363148 -10.545280 2.230363 0.000000 0.000000 0.000000 0.000000 0.000000 0.000000 -0.222574 0.037625 -55.151995 -0.000000 0.000000 0.000000 -5.162547 3.865869 3.342037 0.000000 0.000000 0.000000 -0.222574 0.037625 -55.151995 -0.000000 0.000000 0.000000 -1.178882 0.167184 0.618041 0.000000 0.000000 0.000000
100.257002 73.445072 346.945372 0.176759 0.147031 55.195823 -0.221617 0.061217 -55.195932 -0.000000 0.000000 0.000000 -0.843169 -0.924223 -0.298498 0.000000 0.000000 0.000000 -0.000000 0.000000 0.000000 0.090714 -1.222903 0.097383 2.065104 6.119342 -1.940730 -1.571708 1.159729 1.391739 0.000000 0.000000 0.000000 0.000000 0.000000 0.000000 -0.198407 -1.040628 -0.263223 0.193657 1.041522 0.259661 0.622407 6.532350 -2.131964 -2.774840 -7.519029 1.818204 0.000000 0.000000 0.000000 0.000000 0.000000 0.000000 -0.221617 0.061217 -55.195932 -0.000000 0.000000 0.000000 -5.700116 3.919387 3.787278 0.000000 0.000000 0.000000 -0.221617 0.061217 -55.195932 -0.000000 0.000000 0.000000 -1.518330 1.480324 0.569674 0.000000 0.000000 0.000000
100.253317 73.447013 346.959705 0.202980 0.125625 55.223097 -0.218962 0.095069 -55.223138 -0.000000 0.000000 0.000000 -0.814620 -0.784055 -0.235819 0.000000 0.000000 0.000000 -0.000000 0.000000 0.000000 0.085565 -1.352738 0.112464 2.435709 4.679177 -2.055685 -2.230214 2.463262 1.612169 0.000000 0.000000 0.000000 0.000000 0.000000 0.000000 -0.299178 -0.980526 -0.199115 0.295812 0.981547 0.194021 0.319663 6.324551 -2.070345 -1.441607 -7.349931 1.970856 0.000000 0.000000 0.000000 0.000000 0.000000 0.000000 -0.218962 0.095069 -55.223138 -0.000000 0.000000 0.000000 -5.689364 3.310060 3.942295 0.000000 0.000000 0.000000 -0.218962 0.095069 -55.223138 -0.000000 0.000000 0.000000 -2.005979 2.273374 0.703391 0.000000 0.000000 0.000000
100.225679 73.468407 346.942185 0.198871 0.135153 55.404443 -0.224170 0.086970 -55.404507 -0.000000 0.000000 0.000000 -0.690789 -0.518399 -0.128995 0.000000 0.000000 0.000000 -0.000000 0.000000 0.000000 0.062463 -1.584501 0.143675 1.404780 3.290899 -1.246781 -1.150953 2.938039 0.876577 0.000000 0.000000 0.000000 0.000000 0.000000 0.000000 -0.433388 -0.727437 -0.054745 0.432728 0.727830 0.049245 -0.837440 8.773499 -2.895558 -0.307306 -11.326484 3.062828 0.000000 0.000000 0.000000 0.000000 0.000000 0.000000 -0.224170 0.086970 -55.404507 -0.000000 0.000000 0.000000 -5.225289 2.225972 3.843489 0.000000 0.000000 0.000000 -0.224170 0.086970 -55.404507 -0.000000 0.000000 0.000000 -1.578144 2.334769 0.451975 0.000000 0.000000 0.000000
100.172074 73.502692 346.944115 0.179989 0.114314 55.494442 -0.196164 0.083567 -55.494479 -0.000000 0.000000 0.000000 -0.000000 0.000000 0.000000 0.000000 0.000000 0.000000 -0.000000 0.000000 0.000000 0.169394 -1.302371 0.081185 -0.073682 2.251425 -0.219277 0.541112 3.002932 -0.150826 0.000000 0.000000 0.000000 0.000000 0.000000 0.000000 -0.000000 0.000000 0.000000 0.293396 -0.760279 0.063031 -2.027560 9.044240 -2.780306 0.858291 -10.710742 3.095642 0.000000 0.000000 0.000000 0.000000 0.000000 0.000000 -0.196164 0.083567 -55.494479 -0.000000 0.000000 0.000000 -1.788044 -1.323382 1.938187 0.000000 0.000000 0.000000 -0.196164 0.083567 -55.494479 -0.000000 0.000000 0.000000 -1.208921 2.039814 0.296634 0.000000 0.000000 0.000000
